<svg xmlns="http://www.w3.org/2000/svg" version="1.1" xmlns:xlink="http://www.w3.org/1999/xlink" xmlns:svgjs="http://svgjs.dev/svgjs" width="1600" height="900" preserveAspectRatio="none" viewBox="0 0 1600 900"><g mask="url(&quot;#SvgjsMask1491&quot;)" fill="none"><rect width="1600" height="900" x="0" y="0" fill="url(&quot;#SvgjsLinearGradient1492&quot;)"></rect><path d="M119.43,255.078C175.567,255.569,237.429,252.248,268.545,205.521C302.373,154.721,298.537,86.453,266.177,34.705C235.569,-14.242,177.118,-35.114,119.43,-32.932C65.692,-30.899,18.845,-0.717,-9.269,45.125C-38.898,93.437,-54.854,154.634,-25.235,202.952C3.475,249.789,64.496,254.597,119.43,255.078" fill="rgba(0, 0, 0, 0.24)" class="triangle-float3"></path><path d="M90.783,222.685C136.856,224.592,176.264,193.375,199.935,153.802C224.343,112.997,234.107,62.923,211.305,21.199C187.669,-22.05,140.066,-45.356,90.783,-45.925C40.429,-46.506,-12.342,-26.782,-34.654,18.362C-55.345,60.226,-28.197,105.573,-3.765,145.37C19.064,182.557,47.185,220.88,90.783,222.685" fill="rgba(0, 0, 0, 0.24)" class="triangle-float1"></path><path d="M15.78,82.738C41.153,83.109,68.19,75.33,80.299,53.03C92.029,31.427,82.554,5.537,68.743,-14.798C56.795,-32.39,37.034,-42.665,15.78,-41.966C-4.295,-41.305,-20.425,-28.277,-31.47,-11.5C-44.093,7.673,-55.839,30.67,-45.55,51.19C-34.506,73.216,-8.857,82.378,15.78,82.738" fill="rgba(0, 0, 0, 0.24)" class="triangle-float1"></path><path d="M1545.571,286.817C1600.002,283.776,1641.667,244.001,1668.67,196.642C1695.364,149.825,1710.171,92.765,1682.628,46.442C1655.537,0.88,1598.573,-11.203,1545.571,-10.389C1494.298,-9.602,1444.23,7.989,1415.614,50.541C1383.215,98.717,1368.12,160.998,1396.1,211.868C1424.89,264.211,1485.926,290.149,1545.571,286.817" fill="rgba(0, 0, 0, 0.24)" class="triangle-float2"></path><path d="M1507.591,232.749C1559.744,232.738,1610.943,207.407,1634.712,160.985C1656.863,117.723,1638.722,67.976,1613.109,26.67C1589.196,-11.895,1552.968,-44.064,1507.591,-44.025C1462.271,-43.986,1426.278,-11.659,1402.387,26.852C1376.777,68.134,1358.272,117.778,1380.376,161.039C1404.115,207.499,1455.418,232.76,1507.591,232.749" fill="rgba(0, 0, 0, 0.24)" class="triangle-float2"></path><path d="M1617.734,410.378C1690.239,407.928,1748.458,356.969,1783.908,293.675C1818.442,232.017,1826.173,158.905,1793.751,96.111C1758.434,27.711,1694.713,-27.946,1617.734,-28.163C1540.454,-28.381,1477.738,27.681,1439.99,95.114C1403.223,160.795,1393.93,240.036,1430.897,305.605C1468.482,372.27,1541.248,412.963,1617.734,410.378" fill="rgba(0, 0, 0, 0.24)" class="triangle-float1"></path><path d="M74.021,899.321C112.574,897.371,148.391,881.44,169.803,849.321C194.091,812.887,208.013,767.153,188.139,728.135C166.693,686.029,121.165,658.061,74.021,661.27C30.907,664.205,5.509,704.566,-16.024,742.033C-37.45,779.314,-61.523,822.626,-40.16,859.943C-18.721,897.391,30.925,901.501,74.021,899.321" fill="rgba(0, 0, 0, 0.24)" class="triangle-float1"></path><path d="M86.706,919.038C125.896,915.719,158.034,893.197,179.971,860.553C205.601,822.413,232.371,775.66,210.046,735.496C187.389,694.735,133.341,692.646,86.706,692.764C40.36,692.881,-9.69,697.661,-35.559,736.116C-64.071,778.5,-67.007,836.595,-38.621,879.064C-12.505,918.137,39.877,923.004,86.706,919.038" fill="rgba(0, 0, 0, 0.24)" class="triangle-float3"></path><path d="M154.588,1056.095C218.69,1058.586,277.306,1019.5,308.343,963.358C338.415,908.961,330.506,844.715,301.969,789.497C270.413,728.438,223.309,667.021,154.588,665.847C84.511,664.649,27.991,720.859,-1.784,784.307C-27.478,839.06,-9.936,899.738,20.226,952.162C50.491,1004.765,93.946,1053.738,154.588,1056.095" fill="rgba(0, 0, 0, 0.24)" class="triangle-float1"></path><path d="M1489.935,888.544C1529.085,887.603,1570.587,881.639,1592.147,848.947C1615.686,813.254,1617.606,765.565,1594.951,729.304C1573.4,694.81,1530.557,683.307,1489.935,685.348C1453.096,687.199,1422.022,708.207,1401.738,739.014C1378.689,774.02,1357.547,817.975,1378.841,854.076C1399.954,889.87,1448.39,889.543,1489.935,888.544" fill="rgba(0, 0, 0, 0.24)" class="triangle-float3"></path><path d="M1602.434,1131.118C1682.717,1130.82,1753.099,1082.125,1793.421,1012.701C1833.94,942.938,1843.776,856.239,1802.269,787.06C1761.78,719.577,1681.121,693.079,1602.434,694.386C1526.305,695.65,1453.19,728.37,1413.776,793.513C1372.966,860.964,1370.522,945.306,1408.979,1014.126C1448.38,1084.635,1521.664,1131.417,1602.434,1131.118" fill="rgba(0, 0, 0, 0.24)" class="triangle-float1"></path><path d="M1623.922,1118.374C1702.551,1116.534,1790.807,1111.085,1830.923,1043.434C1871.559,974.906,1838.979,891.755,1799.258,822.692C1759.385,753.367,1703.719,688.847,1623.922,683.527C1535.447,677.629,1448.807,720.455,1402.812,796.264C1355.132,874.851,1347.416,977.746,1399.437,1053.529C1446.681,1122.354,1540.465,1120.327,1623.922,1118.374" fill="rgba(0, 0, 0, 0.24)" class="triangle-float1"></path></g><defs><mask id="SvgjsMask1491"><rect width="1600" height="900" fill="#ffffff"></rect></mask><linearGradient x1="50%" y1="0%" x2="50%" y2="100%" gradientUnits="userSpaceOnUse" id="SvgjsLinearGradient1492"><stop stop-color="rgba(157, 157, 157, 1)" offset="0"></stop><stop stop-color="rgba(255, 255, 255, 1)" offset="1"></stop></linearGradient><style>
                @keyframes float1 {
                    0%{transform: translate(0, 0)}
                    50%{transform: translate(-10px, 0)}
                    100%{transform: translate(0, 0)}
                }

                .triangle-float1 {
                    animation: float1 5s infinite;
                }

                @keyframes float2 {
                    0%{transform: translate(0, 0)}
                    50%{transform: translate(-5px, -5px)}
                    100%{transform: translate(0, 0)}
                }

                .triangle-float2 {
                    animation: float2 4s infinite;
                }

                @keyframes float3 {
                    0%{transform: translate(0, 0)}
                    50%{transform: translate(0, -10px)}
                    100%{transform: translate(0, 0)}
                }

                .triangle-float3 {
                    animation: float3 6s infinite;
                }
            </style></defs></svg>